<svg xmlns="http://www.w3.org/2000/svg" xmlns:xlink="http://www.w3.org/1999/xlink" viewBox="0,0,256,256" width="100px" height="100px" fill-rule="nonzero"><g fill="none" fill-rule="nonzero" stroke="none" stroke-width="1" stroke-linecap="butt" stroke-linejoin="miter" stroke-miterlimit="10" stroke-dasharray="" stroke-dashoffset="0" font-family="none" font-weight="none" font-size="none" text-anchor="none" style="mix-blend-mode: normal"><g transform="scale(2.56,2.56)"><path d="M15,74.5v-48.5c0,-2.761 2.239,-5 5,-5h13h12c2.761,0 5,2.239 5,5v4h25c1.105,0 2,0.895 2,2v8h-54z" fill="#f9e65c"></path><path d="M15,74.667l8,-34.667h62l-9,39h-61" fill="#fef6aa"></path><path d="M48.346,55h-21.428c-0.152,0 -0.296,-0.069 -0.391,-0.188c-0.095,-0.119 -0.13,-0.275 -0.096,-0.423l2.082,-9.002c0.052,-0.226 0.254,-0.387 0.487,-0.387h21.469c0.153,0 0.297,0.07 0.392,0.189c0.095,0.12 0.129,0.276 0.095,0.424l-2.123,9.002c-0.053,0.226 -0.255,0.385 -0.487,0.385z" fill="#78a2d2"></path><path d="M76,80h-61c-0.552,0 -1,-0.447 -1,-1v-53c0,-3.309 2.691,-6 6,-6h25c3.309,0 6,2.691 6,6v3h24c1.654,0 3,1.346 3,3v7h7c0.305,0 0.593,0.139 0.783,0.378c0.189,0.238 0.26,0.55 0.192,0.847l-9,39c-0.105,0.454 -0.509,0.775 -0.975,0.775zM16,78h59.205l8.539,-37h-59.949l-7.795,33.781zM20,22c-2.206,0 -4,1.794 -4,4v39.887l6.025,-26.111c0.105,-0.455 0.509,-0.776 0.975,-0.776h53v-7c0,-0.552 -0.449,-1 -1,-1h-25c-0.552,0 -1,-0.447 -1,-1v-4c0,-2.206 -1.794,-4 -4,-4z" fill="#1f212b"></path><path d="M46.5,30c-0.276,0 -0.5,-0.224 -0.5,-0.5v-3.5c0,-0.552 -0.449,-1 -1,-1h-0.5c-0.276,0 -0.5,-0.224 -0.5,-0.5c0,-0.276 0.224,-0.5 0.5,-0.5h0.5c1.103,0 2,0.897 2,2v3.5c0,0.276 -0.224,0.5 -0.5,0.5zM41.5,25h-2c-0.276,0 -0.5,-0.224 -0.5,-0.5c0,-0.276 0.224,-0.5 0.5,-0.5h2c0.276,0 0.5,0.224 0.5,0.5c0,0.276 -0.224,0.5 -0.5,0.5zM18.5,34c-0.276,0 -0.5,-0.224 -0.5,-0.5v-7.5c0,-1.103 0.897,-2 2,-2h16.5c0.276,0 0.5,0.224 0.5,0.5c0,0.276 -0.224,0.5 -0.5,0.5h-16.5c-0.551,0 -1,0.448 -1,1v7.5c0,0.276 -0.224,0.5 -0.5,0.5z" fill="#1f212b"></path><g fill="#1f212b"><path d="M48.346,55h-21.428c-0.152,0 -0.296,-0.069 -0.391,-0.188c-0.095,-0.119 -0.13,-0.275 -0.096,-0.423l2.082,-9.002c0.052,-0.226 0.254,-0.387 0.487,-0.387h11.5c0.276,0 0.5,0.223 0.5,0.499c0,0.276 -0.224,0.499 -0.5,0.499h-11.102l-1.851,8.004h20.403l1.887,-8.004h-1.837c-0.276,0 -0.5,-0.223 -0.5,-0.499c0,-0.276 0.223,-0.499 0.5,-0.499h2.469c0.153,0 0.297,0.07 0.392,0.189c0.095,0.12 0.129,0.276 0.095,0.424l-2.123,9.002c-0.053,0.226 -0.255,0.385 -0.487,0.385z"></path></g><g fill="#1f212b"><path d="M45.5,46h-2c-0.276,0 -0.5,-0.224 -0.5,-0.5c0,-0.276 0.224,-0.5 0.5,-0.5h2c0.276,0 0.5,0.224 0.5,0.5c0,0.276 -0.224,0.5 -0.5,0.5z"></path></g></g></g><g fill="#000000" fill-rule="nonzero" stroke="none" stroke-width="1" stroke-linecap="butt" stroke-linejoin="miter" stroke-miterlimit="10" stroke-dasharray="" stroke-dashoffset="0" font-family="none" font-weight="none" font-size="none" text-anchor="none" style="mix-blend-mode: normal"><g><path d="M61.195,161.229h3.93v25.65c0,4.42 -2.00333,6.63 -6.01,6.63v0c-0.86667,0 -1.66667,-0.13 -2.4,-0.39v0v-3.14c0.45333,0.11333 1.04667,0.17 1.78,0.17v0c0.88,0 1.55,-0.23667 2.01,-0.71c0.46,-0.47333 0.69,-1.3 0.69,-2.48v0zM60.795,155.129v0c0,-0.62667 0.19333,-1.16333 0.58,-1.61c0.39333,-0.44 0.96333,-0.66 1.71,-0.66v0c0.76667,0 1.35,0.21667 1.75,0.65c0.39333,0.44 0.59,0.98 0.59,1.62c0,0.64 -0.19667,1.17 -0.59,1.59c-0.4,0.42667 -0.98333,0.64 -1.75,0.64c-0.76,0 -1.33333,-0.21333 -1.72,-0.64c-0.38,-0.42 -0.57,-0.95 -0.57,-1.59zM89.775,184.219h-4.12c-0.22667,-0.45333 -0.41,-1.26 -0.55,-2.42v0c-1.82667,1.9 -4.01,2.85 -6.55,2.85v0c-2.26667,0 -4.12333,-0.64333 -5.57,-1.93c-1.45333,-1.28 -2.18,-2.90333 -2.18,-4.87v0c0,-2.4 0.91,-4.26 2.73,-5.58c1.82,-1.32667 4.38,-1.99 7.68,-1.99v0h3.83v-1.81c0,-1.37333 -0.41333,-2.46667 -1.24,-3.28c-0.82,-0.81333 -2.03,-1.22 -3.63,-1.22v0c-1.4,0 -2.57667,0.35333 -3.53,1.06c-0.94667,0.70667 -1.42,1.56333 -1.42,2.57v0h-3.95c0,-1.14667 0.40667,-2.25333 1.22,-3.32c0.81333,-1.07333 1.91667,-1.92 3.31,-2.54c1.39333,-0.62667 2.92667,-0.94 4.6,-0.94v0c2.65333,0 4.73,0.66333 6.23,1.99c1.5,1.32667 2.28,3.15 2.34,5.47v0v10.58c0,2.11333 0.26667,3.79333 0.8,5.04v0zM79.135,181.219v0c1.23333,0 2.4,-0.31667 3.5,-0.95c1.10667,-0.64 1.91,-1.47 2.41,-2.49v0v-4.72h-3.09c-4.81333,0 -7.22,1.41 -7.22,4.23v0c0,1.23333 0.41,2.19667 1.23,2.89c0.82,0.69333 1.87667,1.04 3.17,1.04zM103.315,169.469v3.21h-10.37v-3.21zM106.095,172.789v-0.28c0,-2.25333 0.44333,-4.28 1.33,-6.08c0.88667,-1.79333 2.12,-3.18 3.7,-4.16c1.58,-0.98 3.38333,-1.47 5.41,-1.47v0c3.12667,0 5.65667,1.08333 7.59,3.25c1.94,2.17333 2.91,5.05667 2.91,8.65v0v0.28c0,2.24 -0.43,4.24667 -1.29,6.02c-0.86,1.78 -2.08667,3.16667 -3.68,4.16c-1.59333,0.99333 -3.42333,1.49 -5.49,1.49v0c-3.11333,0 -5.64,-1.08667 -7.58,-3.26c-1.93333,-2.16667 -2.9,-5.03333 -2.9,-8.6zM110.055,172.979v0c0,2.54667 0.59,4.59333 1.77,6.14c1.18667,1.54667 2.77,2.32 4.75,2.32v0c2,0 3.58667,-0.78333 4.76,-2.35c1.17333,-1.56667 1.76,-3.76 1.76,-6.58v0c0,-2.52 -0.59667,-4.56333 -1.79,-6.13c-1.2,-1.56667 -2.79,-2.35 -4.77,-2.35v0c-1.94,0 -3.50667,0.77333 -4.7,2.32c-1.18667,1.54667 -1.78,3.75667 -1.78,6.63zM131.005,172.829v-0.3c0,-3.52667 0.83667,-6.36333 2.51,-8.51c1.66667,-2.14667 3.85333,-3.22 6.56,-3.22v0c2.69333,0 4.82667,0.92333 6.4,2.77v0v-11.99h3.93v32.64h-3.61l-0.19,-2.47c-1.57333,1.93333 -3.76333,2.9 -6.57,2.9v0c-2.66,0 -4.83,-1.09333 -6.51,-3.28c-1.68,-2.18 -2.52,-5.02667 -2.52,-8.54zM134.935,172.979v0c0,2.60667 0.54,4.64667 1.62,6.12c1.07333,1.47333 2.56,2.21 4.46,2.21v0c2.49333,0 4.31333,-1.12 5.46,-3.36v0v-10.56c-1.17333,-2.16667 -2.98,-3.25 -5.42,-3.25v0c-1.92667,0 -3.42667,0.74333 -4.5,2.23c-1.08,1.48667 -1.62,3.69 -1.62,6.61zM170.785,184.219l-0.09,-2.27c-1.52667,1.8 -3.77,2.7 -6.73,2.7v0c-2.45333,0 -4.32,-0.71333 -5.6,-2.14c-1.28,-1.42667 -1.93,-3.53333 -1.95,-6.32v0v-14.96h3.94v14.85c0,3.48667 1.41667,5.23 4.25,5.23v0c3,0 4.99667,-1.12 5.99,-3.36v0v-16.72h3.93v22.99zM191.605,161.099v3.66c-0.59333,-0.1 -1.23667,-0.15 -1.93,-0.15v0c-2.58,0 -4.33,1.09667 -5.25,3.29v0v16.32h-3.93v-22.99h3.83l0.06,2.65c1.28667,-2.05333 3.11333,-3.08 5.48,-3.08v0c0.76667,0 1.34667,0.1 1.74,0.3z"></path></g></g></svg>